PathFileType	4	(X/Y/Z)	C:\Users\Basilio\Documents\Thesis Gigler\squatting_fais\c3dfiles\073\SJ_pre3\markers_experimental.trc
DataRate	CameraRate	NumFrames	NumMarkers	Units	OrigDataRate	OrigDataStartFrame	OrigNumFrames
200.000000	200.000000	4	61	mm	200.000000	0	1320
Frame#	Time	FHD			LBHD			RBHD			C7			T10			CLAV			LSHO			LUUPA			LMUPA			LDUPA			LLEP			LMEP			LRAD			LUL			LRFIN			RSHO			RUPA1			RMUPA			RDUPA			RLEP			RMEP			RRAD			RUL			RUFIN			LASI			RASI			USACR			LSACR			RSACR			LTHI1			LTHI2			LTHI3			LTHI4			LLFC			LMFC			LTIB1			LTIB2			LTIB3			LTIB4			LLMAL			LMMAL			LHEE			LMT1			LMT2			LMT5			RTHI			RTHI2			RTHI3			RTHI4			RLFC			RMFC			RTIB1			RTIB2			RTIB3			RTIB4			RLMAL			RMMAL			RHEE			RMT1			RMT2			RMT5			
		X1	Y1	Z1	X2	Y2	Z2	X3	Y3	Z3	X4	Y4	Z4	X5	Y5	Z5	X6	Y6	Z6	X7	Y7	Z7	X8	Y8	Z8	X9	Y9	Z9	X10	Y10	Z10	X11	Y11	Z11	X12	Y12	Z12	X13	Y13	Z13	X14	Y14	Z14	X15	Y15	Z15	X16	Y16	Z16	X17	Y17	Z17	X18	Y18	Z18	X19	Y19	Z19	X20	Y20	Z20	X21	Y21	Z21	X22	Y22	Z22	X23	Y23	Z23	X24	Y24	Z24	X25	Y25	Z25	X26	Y26	Z26	X27	Y27	Z27	X28	Y28	Z28	X29	Y29	Z29	X30	Y30	Z30	X31	Y31	Z31	X32	Y32	Z32	X33	Y33	Z33	X34	Y34	Z34	X35	Y35	Z35	X36	Y36	Z36	X37	Y37	Z37	X38	Y38	Z38	X39	Y39	Z39	X40	Y40	Z40	X41	Y41	Z41	X42	Y42	Z42	X43	Y43	Z43	X44	Y44	Z44	X45	Y45	Z45	X46	Y46	Z46	X47	Y47	Z47	X48	Y48	Z48	X49	Y49	Z49	X50	Y50	Z50	X51	Y51	Z51	X52	Y52	Z52	X53	Y53	Z53	X54	Y54	Z54	X55	Y55	Z55	X56	Y56	Z56	X57	Y57	Z57	X58	Y58	Z58	X59	Y59	Z59	X60	Y60	Z60	X61	Y61	Z61	

1	0	-210.799301147461	1618.521118164063	-1022.251098632813	-348.1894836425782	1634.201904296875	-1042.260986328125	-371.8926086425782	1633.043334960938	-908.176208496094	-437.0443420410157	1525.414672851563	-969.021423339844	-505.2106018066407	1184.850830078125	-954.331237792969	-325.4561462402344	1424.093627929688	-961.6604614257815	-345.6486511230469	1446.69873046875	-1135.7353515625	-422.2450561523439	1349.981567382813	-1251.250732421875	-403.0771484375001	1303.1396484375	-1250.191284179688	-450.0391235351564	1297.205444335938	-1288.832153320313	-482.6090087890626	1209.567626953125	-1333.293579101563	-553.0789184570314	1193.964599609375	-1290.730346679688	-396.489227294922	1018.088806152344	-1172.473266601563	-357.8761596679688	997.7534179687502	-1232.252075195313	-357.7949218750001	1009.092224121094	-1125.362548828125	-344.3331909179688	1458.749267578125	-792.6409912109377	-440.8885498046876	1380.468872070313	-654.4581909179689	-426.0419921875001	1334.285278320313	-645.9132690429689	-476.5717773437501	1337.007568359375	-613.3146362304689	-502.0611572265626	1259.747802734375	-565.9312744140626	-573.1326904296876	1244.663330078125	-624.9893798828126	-466.378631591797	1031.96826171875	-704.7608032226564	-423.9472656250001	1014.384216308594	-644.0420532226564	-404.3327941894532	1023.575073242188	-746.8297729492189	-330.6821899414063	1021.748291015625	-1068.365966796875	-348.7929687500001	1011.512512207031	-814.8310546875002	-521.0521240234376	1082.182250976563	-947.0415039062502	-533.1273193359376	1054.92431640625	-976.4382324218752	-540.5897216796876	1051.873291015625	-921.1435546875002	-397.8393859863282	718.4468994140626	-1164.394775390625	-372.1071777343751	638.0088500976564	-1154.899291992188	-334.4425964355469	634.9145507812501	-1122.863037109375	-406.849090576172	590.1164550781251	-1156.240966796875	-409.1672973632814	531.0934448242189	-1166.210205078125	-421.4490661621095	505.3769531250001	-1030.173950195313	-358.3638305664063	328.2049865722657	-1136.716064453125	-412.6523437500001	291.2707519531251	-1196.314086914063	-373.1649780273438	283.9882812500001	-1173.64501953125	-371.0141296386719	202.6743927001954	-1148.639282226563	-431.1251220703126	85.27682495117189	-1186.375854492188	-419.6888427734376	103.8354415893555	-1100.170776367188	-486.9553222656251	48.49093246459962	-1146.84228515625	-260.6620788574219	55.57968902587892	-1112.450927734375	-259.0056457519532	56.63146209716798	-1150.441040039063	-294.2316284179688	36.2730941772461	-1205.90673828125	-455.7363891601564	796.9663696289065	-725.6691894531251	-423.2745361328126	740.0780029296876	-713.8975830078126	-389.6370544433595	739.4396362304689	-717.3101806640626	-454.4263000488282	661.9343261718751	-725.9204101562501	-436.7821044921876	515.2680053710939	-713.7207031250001	-421.5463867187501	479.8224182128907	-838.5270996093752	-386.4629821777345	340.6714172363282	-766.3114624023439	-414.0014648437501	272.4617919921876	-686.7316894531251	-386.1554565429689	264.0154724121094	-725.3726806640626	-400.6008300781251	212.8971099853516	-749.6115112304689	-449.4572143554689	89.71240234375001	-676.0164184570314	-434.176727294922	99.78780364990237	-765.8400268554689	-512.2315673828126	43.97512817382813	-729.0707397460939	-284.5438537597657	57.32613372802736	-718.3488159179689	-288.7569885253907	59.87210845947267	-677.5762939453126	-332.2057800292969	36.93629837036134	-631.6826782226564	
2	0.005	-211.2755584716797	1618.826782226563	-1020.964965820313	-348.7305603027344	1634.176147460938	-1041.1669921875	-372.2394714355469	1632.996704101563	-906.9773559570315	-437.3758239746095	1525.412475585938	-967.9138183593752	-505.4287719726564	1184.74072265625	-953.5213012695315	-325.7592163085938	1424.062133789063	-960.4807739257815	-346.0543823242188	1446.770385742188	-1134.757568359375	-422.7690429687501	1350.027099609375	-1250.22705078125	-403.5505981445314	1303.214599609375	-1249.013305664063	-450.6120910644532	1297.265747070313	-1287.783081054688	-482.9450073242189	1209.613159179688	-1332.119506835938	-553.4448852539064	1193.88232421875	-1289.581298828125	-396.615447998047	1018.060363769531	-1171.658325195313	-358.1031188964844	997.8168945312502	-1231.5068359375	-357.7443847656251	1009.097473144531	-1124.462646484375	-344.5479125976563	1458.430297851563	-791.4918212890627	-440.8775939941407	1380.0888671875	-653.2576293945314	-426.0996093750001	1333.861328125	-644.7282104492189	-476.5616149902345	1336.501831054688	-612.1652221679689	-502.1148986816407	1259.276000976563	-564.9191284179689	-573.2023315429689	1244.21826171875	-623.8520507812501	-466.425994873047	1031.540283203125	-703.8747558593751	-424.0662841796876	1014.025451660156	-643.3472900390626	-404.4410705566407	1023.288208007813	-746.0119628906251	-330.6911010742188	1021.734313964844	-1067.60546875	-348.9151000976563	1011.258056640625	-813.9985351562502	-521.1394653320314	1082.08203125	-946.3316040039065	-533.1268310546876	1054.750854492188	-975.5286254882815	-540.6871948242189	1051.7314453125	-920.3040771484377	-398.3021850585939	718.0777587890626	-1164.935913085938	-372.0718994140626	637.9373779296876	-1154.067016601563	-334.5320129394532	634.8370361328126	-1122.216552734375	-406.936981201172	590.0925903320314	-1155.712890625	-409.2606506347657	531.1064453125001	-1165.651733398438	-421.7839355468751	505.2722473144532	-1029.677490234375	-358.5108947753907	328.2083435058594	-1136.418090820313	-412.5286254882814	291.2495727539063	-1195.68701171875	-373.2100524902344	284.0592956542969	-1173.27197265625	-371.0720520019532	202.7458496093751	-1148.41748046875	-431.1307678222657	85.28230285644533	-1186.375244140625	-419.7362060546876	103.8381576538086	-1100.078369140625	-486.9512023925782	48.51165771484376	-1146.835327148438	-260.6348266601563	55.62574386596681	-1112.418212890625	-259.0245666503907	56.64503097534181	-1150.351196289063	-294.2458801269532	36.34338760375977	-1205.903564453125	-456.0629882812501	796.7910766601565	-725.0507812500001	-423.5752563476564	739.9113159179689	-713.2396240234376	-389.967742919922	739.2690429687501	-716.5318603515626	-454.7520446777345	661.7759399414064	-725.2701416015626	-437.0503540039064	515.1245727539064	-713.2163696289064	-421.7192382812501	479.746307373047	-837.958435058594	-386.5781860351564	340.6045227050782	-765.8969726562501	-414.0017700195314	272.3259277343751	-686.3734741210939	-386.2107543945314	263.9184265136719	-725.0582885742189	-400.6288452148439	212.8100891113282	-749.3520507812501	-449.4427185058595	89.53883361816408	-675.8567504882814	-434.1736755371095	99.7541198730469	-765.6451416015626	-512.2224731445314	43.91806411743165	-728.9384765625001	-284.5173034667969	57.26891326904298	-718.2055664062501	-288.7637634277344	59.73332977294923	-677.4064941406251	-332.2244567871094	36.82282257080079	-631.5054931640626	
3	0.01	-211.6804504394532	1618.99658203125	-1019.69775390625	-349.0430603027344	1634.112548828125	-1039.885375976563	-372.6684875488282	1632.885009765625	-905.6926879882815	-437.7788391113282	1525.369995117188	-966.6865234375002	-505.5732727050782	1184.65966796875	-952.6049804687502	-325.9598693847657	1424.087768554688	-959.1864013671877	-346.4652404785157	1446.850952148438	-1133.590942382813	-423.3364257812501	1350.134155273438	-1249.040161132813	-403.9712524414064	1303.3935546875	-1248.039794921875	-451.0991516113282	1297.357788085938	-1286.554565429688	-483.4598388671876	1209.741943359375	-1331.018188476563	-553.8475341796876	1193.79443359375	-1288.284545898438	-396.8153076171876	1018.048583984375	-1170.716674804688	-358.1498107910157	997.9414062500002	-1230.52734375	-357.8596191406251	1009.054443359375	-1123.587280273438	-344.8390808105469	1458.344482421875	-790.4439086914065	-441.011932373047	1379.648071289063	-651.9854736328126	-426.1737365722657	1333.360229492188	-643.4796142578126	-476.6744995117189	1336.082763671875	-611.0058593750001	-502.1770629882814	1258.816528320313	-563.8001098632814	-573.2781372070314	1243.81884765625	-622.6904907226564	-466.4459838867189	1031.239135742188	-703.0063476562501	-424.1824340820314	1013.687622070313	-642.5806884765626	-404.5754699707032	1023.004577636719	-745.0839843750001	-330.7501831054688	1021.730712890625	-1066.61376953125	-349.1380615234376	1011.079711914063	-813.215759277344	-521.3781127929689	1081.996948242188	-945.3835449218752	-533.1211547851564	1054.670532226563	-974.7930297851565	-540.7885131835939	1051.636840820313	-919.4945068359377	-398.2950744628907	718.5414428710939	-1164.528686523438	-372.0676269531251	638.0154418945314	-1153.387084960938	-334.6248474121094	634.8416748046876	-1121.61376953125	-407.0013427734376	590.0541381835939	-1155.065185546875	-409.4117431640626	531.1587524414064	-1165.066528320313	-422.0595092773439	505.2122192382814	-1029.178955078125	-358.6391296386719	328.2489929199219	-1136.116577148438	-412.7159423828126	291.4634704589844	-1195.710815429688	-373.3032226562501	284.1672058105469	-1172.875244140625	-371.1655273437501	202.7623291015626	-1148.220703125	-431.173065185547	85.3635711669922	-1186.333618164063	-419.7705993652345	103.8240585327149	-1100.047729492188	-486.9813537597657	48.5038185119629	-1146.844116210938	-260.7183532714844	55.45370101928712	-1112.313232421875	-259.6431884765626	56.61618804931642	-1150.143188476563	-294.3054199218751	36.39182281494141	-1205.842407226563	-456.3645019531251	796.6457519531252	-724.3477783203126	-423.847869873047	739.7276611328126	-712.4465942382814	-390.2588195800782	739.0530395507814	-715.6867065429689	-455.0532836914064	661.6415405273439	-724.6170043945314	-437.2694702148439	515.0050659179689	-712.6084594726564	-421.9385375976564	479.6783447265626	-837.4011230468752	-386.7059936523439	340.5770568847657	-765.4930419921876	-413.9759521484376	272.1591491699219	-686.0206298828126	-386.2528076171876	263.8534851074219	-724.7669067382814	-400.7185668945314	212.7595520019532	-749.1141967773439	-449.4520874023439	89.41817474365236	-675.6727294921876	-434.189910888672	99.73402404785159	-765.5158081054689	-512.2413940429689	43.88543319702149	-728.8654785156251	-284.5041503906251	57.23695755004884	-718.0150146484376	-288.7220153808594	59.63059234619142	-677.3050537109376	-332.1986083984376	36.7084083557129	-631.3723144531251	
4	0.015	-212.1238555908204	1619.3017578125	-1018.548400878906	-349.5321960449219	1634.09619140625	-1038.643798828125	-373.0535278320313	1632.867797851563	-904.445007324219	-438.0741577148439	1525.337524414063	-965.5317993164065	-505.7422790527345	1184.651733398438	-951.626892089844	-326.2315673828126	1424.100830078125	-958.1315917968752	-346.8524169921876	1446.950073242188	-1132.533935546875	-423.7979431152345	1350.248901367188	-1247.858154296875	-404.4260253906251	1303.489501953125	-1246.938110351563	-451.6752319335939	1297.425537109375	-1285.29638671875	-483.9687805175782	1209.812133789063	-1329.802001953125	-554.1723632812501	1193.766357421875	-1287.005859375	-397.0149536132814	1018.062744140625	-1169.7587890625	-358.3391418457032	998.0587158203127	-1229.633178710938	-358.1063232421876	1009.011352539063	-1122.670288085938	-345.0276184082032	1458.1572265625	-789.2402954101565	-441.0289916992189	1379.279907226563	-650.7644042968751	-426.2545166015626	1332.859741210938	-642.3389282226564	-476.6039123535157	1335.691528320313	-609.8159179687501	-502.1742248535157	1258.310791015625	-562.6118164062501	-573.4015502929689	1243.465942382813	-621.5963134765626	-466.6307067871095	1031.012939453125	-702.1253662109376	-424.3316040039064	1013.245849609375	-641.7612915039064	-404.6841125488282	1022.760925292969	-744.2003173828126	-330.9408874511719	1021.658325195313	-1065.761474609375	-349.2778930664063	1010.9052734375	-812.3657836914065	-521.5244750976564	1081.921630859375	-944.6348266601565	-533.3410644531251	1054.63232421875	-973.9136962890627	-540.9034423828126	1051.612670898438	-918.6008300781252	-397.7651977539064	718.3230590820314	-1162.222778320313	-372.3958740234376	637.9721069335939	-1152.823974609375	-334.7311401367188	634.7507934570314	-1120.9736328125	-407.2068176269532	590.0319213867189	-1154.581787109375	-409.4973449707032	531.1211547851564	-1164.443115234375	-422.1116333007814	505.1090698242189	-1028.649780273438	-358.7244567871094	328.2935485839844	-1135.744995117188	-412.7585449218751	291.3607788085938	-1195.261474609375	-373.3701171875001	284.2145690917969	-1172.510009765625	-371.1959838867188	202.8108825683594	-1147.991943359375	-431.1722106933595	85.3610076904297	-1186.289184570313	-419.7687988281251	103.8022155761719	-1099.96826171875	-487.0022888183595	48.49269485473634	-1146.82373046875	-260.6642150878907	55.68833160400392	-1112.345336914063	-259.1084289550782	56.79342269897462	-1150.36474609375	-294.3023986816407	36.39127731323243	-1205.825927734375	-456.633758544922	796.5949707031252	-723.5682983398439	-424.1278686523439	739.5725097656251	-711.6046752929689	-390.5546264648439	738.8432617187501	-714.9194946289064	-455.2791748046876	661.5399780273439	-723.9896850585939	-437.4474182128907	514.9510498046876	-712.0255737304689	-422.182098388672	479.6594543457032	-836.8296508789065	-386.8890075683595	340.4782104492188	-765.1842041015626	-413.9748840332032	272.0238342285157	-685.6680297851564	-386.1517028808595	263.6780090332032	-724.6499023437501	-400.7671508789064	212.6866149902344	-748.8698730468751	-449.4266967773439	89.29598999023439	-675.5720825195314	-434.1636657714845	99.71082305908206	-765.3347778320314	-512.2229003906251	43.82788848876954	-728.7117309570314	-284.4872436523438	57.00536346435548	-717.9718017578126	-288.6786499023438	59.73477935791017	-676.9907836914064	-332.2200317382813	36.63258743286134	-631.2286376953126	
